<svg id="Layer_1" data-name="Layer 1"
          xmlns="http://www.w3.org/2000/svg" width="890" height="18.09" viewBox="0 0 890 18.09">
          <path class="cls-1" fill="#27253c" opacity="1.000000" stroke="none"
            d="M889.89,0a7.22,7.22,0,0,0-7.41,7v3.66a7.23,7.23,0,0,1-6.14,3.36,7.12,7.12,0,0,1-7.22-7,7.22,7.22,0,0,0-14.43,0v3.66a7.23,7.23,0,0,1-6.14,3.36,7.13,7.13,0,0,1-7.22-7,7.22,7.22,0,0,0-14.44,0v3.66a7.23,7.23,0,0,1-6.13,3.36,7.12,7.12,0,0,1-7.22-7A7.22,7.22,0,0,0,799.1,7v3.66A7.23,7.23,0,0,1,793,14.05a7.13,7.13,0,0,1-7.22-7,7.22,7.22,0,0,0-14.43,0v3.66a7.23,7.23,0,0,1-6.14,3.36A7.13,7.13,0,0,1,758,7a7.22,7.22,0,0,0-14.44,0v3.66a7.23,7.23,0,0,1-6.13,3.36,7.11,7.11,0,0,1-7.22-7,7.22,7.22,0,0,0-14.44,0v3.66a7.23,7.23,0,0,1-6.14,3.36,7.13,7.13,0,0,1-7.22-7,7.22,7.22,0,0,0-14.43,0v3.66a7.25,7.25,0,0,1-6.14,3.36,7.12,7.12,0,0,1-7.22-7,7.22,7.22,0,0,0-14.44,0v3.66A7.23,7.23,0,0,1,654,14.05a7.12,7.12,0,0,1-7.21-7,7.22,7.22,0,0,0-14.44,0v3.66a7.23,7.23,0,0,1-6.14,3.36A7.13,7.13,0,0,1,619,7a7.22,7.22,0,0,0-14.43,0v3.66a7.25,7.25,0,0,1-6.14,3.36,7.12,7.12,0,0,1-7.22-7A7.13,7.13,0,0,0,584,0l-.3,0v0a7.22,7.22,0,0,0-6.29,7,4.69,4.69,0,0,1,0,.53,7,7,0,0,1-14-.53A7.22,7.22,0,0,0,549,7v3.66a7.22,7.22,0,0,1-6.13,3.36,7.13,7.13,0,0,1-7.22-7,7.22,7.22,0,0,0-14.44,0v3.66A7.23,7.23,0,0,1,515,14.05a7.11,7.11,0,0,1-7.21-7,7.22,7.22,0,0,0-14.44,0v3.66a7.23,7.23,0,0,1-6.14,3.36A7.13,7.13,0,0,1,480,7a7.22,7.22,0,0,0-14.44,0v3.66a7.22,7.22,0,0,1-6.13,3.36,7.12,7.12,0,0,1-7.22-7,7.22,7.22,0,0,0-14.44,0v3.66a7.23,7.23,0,0,1-6.13,3.36,7.13,7.13,0,0,1-7.23-7A7.22,7.22,0,0,0,410,7v3.66a7.23,7.23,0,0,1-6.14,3.36,7.13,7.13,0,0,1-7.22-7,7.22,7.22,0,0,0-14.44,0v3.66a7.23,7.23,0,0,1-6.13,3.36,7.12,7.12,0,0,1-7.22-7A7.22,7.22,0,0,0,354.4,7v3.66a7.23,7.23,0,0,1-6.14,3.36A7.13,7.13,0,0,1,341,7a7.22,7.22,0,0,0-14.43,0v3.66a7.26,7.26,0,0,1-6.15,3.36,7.13,7.13,0,0,1-7.22-7A7.22,7.22,0,0,0,298.8,7v3.66a7.22,7.22,0,0,1-6.13,3.36,7.12,7.12,0,0,1-7.22-7A7.22,7.22,0,0,0,271,7v3.66a7.22,7.22,0,0,1-6.13,3.36,7.12,7.12,0,0,1-7.22-7,7.22,7.22,0,0,0-14.44,0v3.66a7.23,7.23,0,0,1-6.14,3.36,7.12,7.12,0,0,1-7.22-7,7.22,7.22,0,0,0-14.43,0v3.66a7.23,7.23,0,0,1-6.14,3.36,7.13,7.13,0,0,1-7.22-7,7.22,7.22,0,0,0-14.44,0v3.66a7.22,7.22,0,0,1-6.13,3.36,7.12,7.12,0,0,1-7.22-7,7.22,7.22,0,0,0-14.44,0v3.66a7.23,7.23,0,0,1-6.14,3.36,7.12,7.12,0,0,1-7.22-7,7.22,7.22,0,0,0-14.43,0v3.66a7.23,7.23,0,0,1-6.14,3.36,7.13,7.13,0,0,1-7.22-7,7.22,7.22,0,0,0-14.44,0v3.66a7.23,7.23,0,0,1-6.13,3.36A7.11,7.11,0,0,1,90.9,7,7.22,7.22,0,0,0,76.46,7v3.66a7.23,7.23,0,0,1-6.14,3.36A7.13,7.13,0,0,1,63.1,7,7.22,7.22,0,0,0,48.67,7v3.66a7.25,7.25,0,0,1-6.14,3.36,7.13,7.13,0,0,1-7.22-7A7.22,7.22,0,0,0,20.87,7v3.66a7.23,7.23,0,0,1-6.13,3.36A7.12,7.12,0,0,1,7.52,7,7.13,7.13,0,0,0,.3,0L0,0V18.09H890V0Z"
            transform="translate(0 0)"></path>
        </svg>
